<svg width="185" height="185" viewBox="0 0 185 185" fill="none" xmlns="http://www.w3.org/2000/svg">
<rect width="185" height="185" rx="92.5" fill="#0064C9"/>
<path d="M106.713 107.125C112.138 109.636 117.538 112.147 122.989 114.606C123.563 114.868 123.589 115.234 123.589 115.757C123.589 124.258 123.589 132.784 123.589 141.285C123.589 142.253 123.589 143.247 123.589 144.215C123.589 144.738 123.432 145.052 122.937 145.261C118.972 147.092 115.008 148.923 111.043 150.754C106.948 152.637 102.853 154.546 98.7578 156.43C97.0624 157.214 95.3669 157.999 93.6715 158.784C93.3325 158.941 93.0195 158.941 92.6543 158.784C89.1331 157.162 85.6379 155.54 82.1167 153.919C74.2135 150.283 66.3364 146.621 58.4332 142.985C55.1207 141.468 51.8342 139.925 48.5217 138.408C48.1565 138.251 48 138.042 48 137.623C48 124.153 48 110.683 48 97.2121C48 96.3228 48 96.2966 48.8607 96.689C58.1463 100.979 67.4319 105.268 76.7436 109.558C77.3957 109.846 78.0217 110.186 78.6737 110.447C79.065 110.604 79.1693 110.866 79.1954 111.258C79.3258 114.187 79.2215 117.143 79.2476 120.073C79.2476 120.936 79.2476 121.773 79.2476 122.636C79.2476 123.551 79.2215 123.578 78.4129 123.211C75.9089 122.06 73.405 120.883 70.8749 119.706C67.3537 118.085 63.8064 116.463 60.2851 114.815C59.7635 114.58 59.6592 114.684 59.6592 115.234C59.6592 120.151 59.6592 125.068 59.6592 130.012C59.6592 130.509 59.8417 130.744 60.2851 130.954C66.0756 133.621 71.8661 136.316 77.6826 139.01C82.6905 141.338 87.6985 143.639 92.6804 145.941C93.0195 146.098 93.2803 146.072 93.6194 145.941C98.5491 143.639 103.479 141.364 108.382 139.088C109.374 138.617 110.365 138.146 111.382 137.702C111.747 137.545 111.904 137.309 111.904 136.891C111.904 132.314 111.904 127.71 111.904 123.133C111.904 122.636 111.695 122.374 111.278 122.165C108.096 120.7 104.913 119.209 101.705 117.719C97.7666 115.888 93.802 114.083 89.8634 112.252C83.6556 109.375 77.4478 106.524 71.2401 103.647C66.4408 101.423 61.6154 99.1738 56.8161 96.9505C54.0513 95.6689 51.2865 94.3611 48.4956 93.0794C48.2087 92.8963 48.0261 92.7394 48.0261 92.3209C48.0261 79.0597 48.0261 65.7985 48.0261 52.5373C48.0261 51.9357 48.1826 51.7788 48.7825 51.7788C52.1472 51.805 55.5119 51.805 58.9027 51.7788C59.5287 51.7788 59.7374 51.9881 59.7113 52.5896C59.7113 60.9858 59.7113 69.3558 59.7113 77.7519C59.7113 80.0536 59.7374 82.3292 59.7113 84.631C59.7113 85.1802 59.8678 85.468 60.3895 85.7295C67.9536 89.2083 75.4916 92.6871 83.0557 96.1658C84.6207 96.8982 104.209 105.974 106.713 107.125Z" fill="white"/>
<path d="M79.1432 90.1236C74.057 87.7695 68.9708 85.3631 63.8585 83.0352C63.0239 82.669 62.7109 82.2505 62.7109 81.2828C62.763 71.7096 62.763 62.1364 62.7109 52.5633C62.7109 51.9355 62.8674 51.7524 63.5194 51.7524C70.1185 51.7524 76.7175 51.7524 83.2904 51.7524C84.1512 51.7524 84.1251 51.7524 84.1512 52.6156C84.3077 55.9374 84.2034 59.2331 84.2294 62.5549C84.2294 63.3919 84.2034 63.4443 83.3426 63.4443C80.63 63.4443 77.8912 63.4443 75.1786 63.4443C74.5787 63.4443 74.3961 63.6012 74.3961 64.2289C74.4222 67.6031 74.4222 70.9772 74.3961 74.3514C74.3961 74.9007 74.6048 75.1622 75.0743 75.3715C80.943 78.0656 86.7856 80.7596 92.6543 83.4537C100.375 87.0371 108.095 90.6205 115.816 94.1778C123.067 97.5257 130.318 100.874 137.569 104.196C138.013 104.405 138.169 104.666 138.169 105.137C138.169 107.674 138.169 110.238 138.169 112.775C138.169 121.04 138.169 129.279 138.169 137.545C138.169 137.989 138.065 138.199 137.648 138.382C134.179 139.951 130.736 141.573 127.293 143.168C126.562 143.508 126.51 143.482 126.51 142.645C126.51 132.81 126.51 122.95 126.51 113.115C126.51 112.278 126.302 111.859 125.493 111.467C116.781 107.491 108.122 103.463 99.4359 99.4352C98.7577 99.1213 82.6123 91.6668 79.0911 90.0451L79.1432 90.1236Z" fill="white"/>
<path d="M93.202 37C107.991 37 122.78 37 137.543 37C138.117 37 138.248 37.1569 138.248 37.7324C138.221 41.0804 138.248 44.4022 138.248 47.7502C138.248 48.718 138.248 48.718 137.256 48.718C124.919 48.718 112.582 48.718 100.271 48.718C99.4359 48.718 99.0185 49.1365 99.0185 49.9735C99.0185 60.4882 99.0185 71.003 99.0185 81.4917C99.0185 81.6748 99.0185 81.8578 99.0185 82.0671C99.0185 82.9826 98.9664 83.0087 98.1056 82.6164C94.7148 81.047 91.3501 79.4776 87.9593 77.9344C87.5159 77.7252 87.3072 77.4898 87.3594 76.9928C87.3855 76.4174 87.3594 75.8158 87.3594 75.2403C87.3594 71.2123 87.229 67.1842 87.3072 63.1823C87.3855 58.6312 87.3072 54.08 87.3594 49.555C87.3594 48.7441 87.3594 48.718 86.5247 48.718C74.2135 48.718 61.9023 48.718 49.591 48.718C49.3824 48.718 49.1737 48.718 48.965 48.718C48.0782 48.718 48.0521 48.718 48.0521 47.8287C48.0521 44.4807 48.0521 41.1065 48.0521 37.7585C48.026 37.1308 48.2086 37 48.7825 37C63.5977 37 78.3868 37 93.202 37Z" fill="white"/>
<path d="M138.222 76.4171C138.222 84.3686 138.222 92.3201 138.222 100.245C138.222 101.109 138.222 101.135 137.439 100.769C133.292 98.8591 129.171 96.9497 125.05 95.0142C120.876 93.0786 116.703 91.1431 112.53 89.2337C112.008 88.9983 111.825 88.7105 111.852 88.1351C111.852 84.3686 111.852 80.6283 111.852 76.8618C111.852 76.051 111.904 76.0248 112.66 76.3648C117.094 78.4312 121.528 80.4714 125.963 82.5115C126.536 82.7731 126.589 82.7469 126.589 82.093C126.589 76.1294 126.589 70.1658 126.589 64.2022C126.589 63.5745 126.406 63.3914 125.78 63.3914C118.32 63.3914 110.86 63.3914 103.375 63.3914C101.862 63.3914 102.096 63.4175 102.07 62.1097C102.044 60.3311 102.07 58.5786 102.018 56.8C101.966 55.2568 102.07 53.7136 102.096 52.1704C102.096 51.778 102.279 51.6211 102.67 51.6211C114.251 51.778 125.832 51.6211 137.413 51.6996C137.969 51.6996 138.248 51.9873 138.248 52.5627C138.248 60.488 138.248 68.4134 138.248 76.3387L138.222 76.4171Z" fill="white"/>
<path d="M99.0185 129.907C99.0185 132.967 99.0185 136.027 99.0185 139.087C99.0185 139.741 98.8359 140.108 98.2099 140.369C96.645 141.049 95.106 141.782 93.5671 142.514C93.3063 142.645 93.0716 142.671 92.8107 142.54C91.1675 141.755 89.4982 140.971 87.8289 140.212C87.3854 140.003 87.2289 139.715 87.255 139.244C87.3594 134.222 87.3594 129.2 87.3333 124.178C87.3333 122.243 87.255 120.307 87.2811 118.372C87.2811 117.247 87.3594 116.122 87.3333 114.998C87.3333 114.475 87.5159 114.501 87.881 114.684C89.3678 115.39 90.8545 116.07 92.3412 116.75C94.2975 117.666 96.2537 118.607 98.236 119.47C98.8359 119.732 99.0185 120.098 99.0185 120.7C99.0185 123.76 99.0185 126.82 99.0185 129.881V129.907Z" fill="white"/>
</svg>
