<svg xmlns="http://www.w3.org/2000/svg" fill="none" viewBox="0 0 864 283" height="283" width="864">
<path fill="#231F20" d="M136.14 162.601C148.72 168.424 161.239 174.246 173.879 179.947C175.21 180.553 175.27 181.402 175.27 182.615C175.27 202.326 175.27 222.098 175.27 241.809C175.27 244.053 175.27 246.358 175.27 248.602C175.27 249.815 174.908 250.543 173.758 251.028C164.565 255.273 155.373 259.519 146.18 263.764C136.684 268.131 127.189 272.558 117.694 276.925C113.762 278.744 109.831 280.564 105.9 282.383C105.114 282.747 104.388 282.747 103.541 282.383C95.3766 278.623 87.2723 274.863 79.1076 271.103C60.7822 262.672 42.5173 254.181 24.1919 245.751C16.511 242.234 8.89053 238.655 1.2096 235.138C0.362879 234.774 0 234.289 0 233.318C0 202.084 0 170.85 0 139.615C0 137.553 -1.80244e-07 137.492 1.99583 138.402C23.5266 148.349 45.0574 158.295 66.6487 168.242C68.1607 168.909 69.6122 169.697 71.1242 170.304C72.0314 170.668 72.2733 171.274 72.3338 172.184C72.6362 178.977 72.3943 185.83 72.4548 192.623C72.4548 194.624 72.4548 196.565 72.4548 198.566C72.4548 200.689 72.3943 200.75 70.5194 199.9C64.7134 197.232 58.9073 194.503 53.0408 191.773C44.876 188.013 36.6507 184.253 28.486 180.432C27.2764 179.886 27.0345 180.129 27.0345 181.402C27.0345 192.805 27.0345 204.207 27.0345 215.669C27.0345 216.822 27.4578 217.367 28.486 217.853C41.9125 224.039 55.339 230.286 68.826 236.533C80.4381 241.93 92.0502 247.267 103.602 252.605C104.388 252.969 104.993 252.908 105.779 252.605C117.21 247.267 128.64 241.991 140.011 236.715C142.309 235.623 144.607 234.531 146.966 233.5C147.813 233.136 148.175 232.59 148.175 231.62C148.175 221.006 148.175 210.332 148.175 199.719C148.175 198.566 147.692 197.96 146.724 197.475C139.345 194.078 131.967 190.621 124.528 187.164C115.395 182.919 106.202 178.734 97.0701 174.488C82.6759 167.817 68.2817 161.206 53.8875 154.535C42.7592 149.38 31.5704 144.164 20.4422 139.009C14.0313 136.037 7.62045 133.004 1.14912 130.033C0.483838 129.608 0.0604798 129.244 0.0604798 128.274C0.0604798 97.5247 0.0604798 66.7755 0.0604798 36.0264C0.0604798 34.6315 0.423358 34.2676 1.81439 34.2676C9.61628 34.3282 17.4182 34.3282 25.2806 34.2676C26.7321 34.2676 27.2159 34.7528 27.1554 36.1477C27.1554 55.6161 27.1554 75.0238 27.1554 94.4922C27.1554 99.8293 27.2159 105.106 27.1554 110.443C27.1554 111.717 27.5183 112.384 28.7279 112.99C46.267 121.057 63.7457 129.123 81.2848 137.189C84.9136 138.887 130.334 159.933 136.14 162.601Z"></path>
<path fill="#231F20" d="M72.2129 123.178C60.4193 117.72 48.6257 112.14 36.7717 106.742C34.8364 105.893 34.1106 104.923 34.1106 102.679C34.2316 80.4814 34.2316 58.2838 34.1106 36.0862C34.1106 34.6306 34.4735 34.2061 35.9855 34.2061C51.2869 34.2061 66.5882 34.2061 81.8291 34.2061C83.825 34.2061 83.7645 34.2061 83.825 36.2075C84.1879 43.9099 83.9459 51.5517 84.0064 59.2542C84.0064 61.1949 83.9459 61.3162 81.9501 61.3162C75.6602 61.3162 69.3098 61.3162 63.0199 61.3162C61.6289 61.3162 61.2055 61.6801 61.2055 63.1357C61.266 70.9595 61.266 78.7832 61.2055 86.6069C61.2055 87.8806 61.6894 88.4871 62.778 88.9723C76.386 95.2191 89.9334 101.466 103.541 107.713C121.443 116.022 139.345 124.331 157.247 132.579C174.061 140.342 190.874 148.105 207.688 155.808C208.716 156.293 209.079 156.899 209.079 157.991C209.079 163.874 209.079 169.818 209.079 175.701C209.079 194.866 209.079 213.97 209.079 233.135C209.079 234.166 208.837 234.652 207.869 235.076C199.825 238.715 191.842 242.475 183.859 246.175C182.165 246.963 182.044 246.903 182.044 244.962C182.044 222.158 182.044 199.293 182.044 176.489C182.044 174.548 181.56 173.578 179.685 172.668C159.485 163.449 139.406 154.109 119.266 144.77C117.694 144.042 80.2567 126.757 72.0919 122.996L72.2129 123.178Z"></path>
<path fill="#0064C9" d="M104.811 0C139.103 0 173.395 0 207.627 0C208.958 0 209.26 0.363895 209.26 1.69818C209.2 9.46127 209.26 17.1637 209.26 24.9268C209.26 27.1708 209.26 27.1708 206.962 27.1708C178.355 27.1708 149.748 27.1708 121.201 27.1708C119.266 27.1708 118.298 28.1412 118.298 30.082C118.298 54.463 118.298 78.8439 118.298 103.164C118.298 103.589 118.298 104.013 118.298 104.499C118.298 106.621 118.177 106.682 116.182 105.772C108.319 102.133 100.517 98.4943 92.655 94.916C91.6268 94.4308 91.143 93.8849 91.2639 92.7326C91.3244 91.3983 91.2639 90.0034 91.2639 88.6691C91.2639 79.3291 90.9615 69.9892 91.143 60.7098C91.3244 50.1569 91.143 39.6039 91.2639 29.1116C91.2639 27.2315 91.2639 27.1708 89.3286 27.1708C60.7821 27.1708 32.2357 27.1708 3.6892 27.1708C3.20537 27.1708 2.72153 27.1708 2.23769 27.1708C0.181376 27.1708 0.120897 27.1708 0.120897 25.1088C0.120897 17.3457 0.120897 9.52192 0.120897 1.75883C0.0604168 0.303246 0.483775 0 1.81433 0C36.1668 0 70.4589 0 104.811 0Z"></path>
<path fill="#231F20" d="M209.2 91.3982C209.2 109.836 209.2 128.273 209.2 146.65C209.2 148.651 209.2 148.712 207.385 147.863C197.769 143.435 188.213 139.008 178.657 134.52C168.981 130.032 159.304 125.544 149.627 121.116C148.417 120.57 147.994 119.903 148.055 118.569C148.055 109.836 148.055 101.163 148.055 92.4293C148.055 90.5492 148.175 90.4885 149.929 91.2769C160.211 96.0682 170.493 100.799 180.774 105.53C182.105 106.136 182.226 106.075 182.226 104.559C182.226 90.7311 182.226 76.9031 182.226 63.0751C182.226 61.6195 181.802 61.195 180.351 61.195C163.054 61.195 145.756 61.195 128.399 61.195C124.891 61.195 125.435 61.2556 125.375 58.2232C125.314 54.099 125.375 50.0355 125.254 45.9114C125.133 42.3331 125.375 38.7548 125.435 35.1765C125.435 34.2667 125.858 33.9028 126.766 33.9028C153.619 34.2667 180.472 33.9028 207.325 34.0848C208.615 34.0848 209.26 34.7519 209.26 36.0862C209.26 54.4629 209.26 72.8396 209.26 91.2163L209.2 91.3982Z"></path>
<path fill="#0064C9" d="M118.298 215.425C118.298 222.521 118.298 229.617 118.298 236.713C118.298 238.229 117.875 239.078 116.424 239.685C112.795 241.262 109.226 242.96 105.658 244.658C105.053 244.961 104.509 245.022 103.904 244.719C100.094 242.899 96.2233 241.08 92.3526 239.321C91.3245 238.836 90.9616 238.169 91.0221 237.077C91.264 225.432 91.264 213.788 91.2035 202.143C91.2035 197.655 91.0221 193.167 91.0826 188.679C91.0826 186.071 91.264 183.463 91.2035 180.855C91.2035 179.642 91.6269 179.703 92.4736 180.127C95.9209 181.765 99.3683 183.342 102.816 184.919C107.352 187.041 111.888 189.225 116.484 191.226C117.875 191.833 118.298 192.682 118.298 194.077C118.298 201.173 118.298 208.269 118.298 215.364V215.425Z"></path>
<path fill="#231F20" d="M289.126 141.705C278.375 141.705 269.969 138.724 263.909 132.761C257.848 126.701 254.818 118.295 254.818 107.543H274.758C274.758 112.626 276.029 116.634 278.57 119.566C281.209 122.401 284.826 123.818 289.42 123.818H305.694C309.995 123.818 313.465 122.938 316.104 121.179C318.841 119.322 320.209 116.878 320.209 113.848V108.863C320.209 104.074 316.69 101.092 309.653 99.9195L282.675 95.3744C273.878 93.9082 267.183 91.1225 262.589 87.0173C258.093 82.8143 255.845 77.4872 255.845 71.0361V62.8256C255.845 57.6452 257.213 53.1001 259.95 49.1904C262.784 45.1829 266.743 42.1039 271.826 39.9536C277.006 37.8032 282.969 36.728 289.713 36.728H306.281C312.634 36.728 318.254 38.0476 323.141 40.6866C328.029 43.3257 331.792 47.04 334.431 51.8295C337.168 56.5212 338.536 61.9948 338.536 68.2504H318.596C318.596 64.1452 317.472 60.8708 315.224 58.4272C312.976 55.8858 309.995 54.6152 306.281 54.6152H289.713C285.608 54.6152 282.284 55.4949 279.743 57.2542C277.299 59.0136 276.078 61.3595 276.078 64.2918V68.2504C276.078 73.1376 279.45 76.1677 286.194 77.3406L313.025 82.0323C321.92 83.5962 328.713 86.3819 333.404 90.3894C338.096 94.2992 340.442 99.3819 340.442 105.637V115.314C340.442 120.495 338.976 125.089 336.044 129.096C333.209 133.104 329.201 136.231 324.021 138.479C318.841 140.63 312.829 141.705 305.987 141.705H289.126Z"></path>
<path fill="#231F20" d="M426.751 116.634H388.337L379.247 140.532H358.134L398.307 37.9009H407.397C413.751 37.9009 418.051 40.8333 420.3 46.6979L456.807 140.532H435.694L426.751 116.634ZM393.762 99.6262H421.326L407.691 62.679H407.544L393.762 99.6262Z"></path>
<path fill="#231F20" d="M491.709 55.4949H459.161V37.9009H544.491V55.4949H511.942V140.532H491.709V55.4949Z"></path>
<path fill="#231F20" d="M598.566 141.705C587.814 141.705 579.408 138.724 573.348 132.761C567.288 126.701 564.258 118.295 564.258 107.543H584.198C584.198 112.626 585.468 116.634 588.01 119.566C590.649 122.401 594.265 123.818 598.859 123.818H615.134C619.434 123.818 622.904 122.938 625.543 121.179C628.28 119.322 629.649 116.878 629.649 113.848V108.863C629.649 104.074 626.13 101.092 619.092 99.9195L592.115 95.3744C583.318 93.9082 576.623 91.1225 572.029 87.0173C567.532 82.8143 565.284 77.4872 565.284 71.0361V62.8256C565.284 57.6452 566.653 53.1001 569.39 49.1904C572.224 45.1829 576.183 42.1039 581.265 39.9536C586.446 37.8032 592.408 36.728 599.153 36.728H615.72C622.073 36.728 627.694 38.0476 632.581 40.6866C637.468 43.3257 641.231 47.04 643.87 51.8295C646.607 56.5212 647.976 61.9948 647.976 68.2504H628.036C628.036 64.1452 626.912 60.8708 624.664 58.4272C622.416 55.8858 619.434 54.6152 615.72 54.6152H599.153C595.047 54.6152 591.724 55.4949 589.183 57.2542C586.739 59.0136 585.517 61.3595 585.517 64.2918V68.2504C585.517 73.1376 588.889 76.1677 595.634 77.3406L622.464 82.0323C631.359 83.5962 638.152 86.3819 642.844 90.3894C647.536 94.2992 649.882 99.3819 649.882 105.637V115.314C649.882 120.495 648.415 125.089 645.483 129.096C642.649 133.104 638.641 136.231 633.461 138.479C628.28 140.63 622.269 141.705 615.427 141.705H598.566Z"></path>
<path fill="#231F20" d="M692.877 140.532C688.674 140.532 685.253 139.261 682.614 136.72C679.975 134.179 678.655 130.855 678.655 126.75V37.9009H756.948V55.4949H698.888V79.2466H752.549V96.8405H698.888V122.938H756.948V140.532H692.877Z"></path>
<path fill="#231F20" d="M810.599 55.4949H778.05V37.9009H863.381V55.4949H830.832V140.532H810.599V55.4949Z"></path>
<path fill="#231F20" d="M255.185 168.023H268.71C270.201 168.023 271.52 168.316 272.669 168.902C273.817 169.464 274.709 170.283 275.345 171.358C275.98 172.409 276.298 173.618 276.298 174.987V178.396C276.298 179.813 275.968 181.071 275.308 182.171C274.648 183.246 273.72 184.089 272.522 184.7C271.349 185.287 269.981 185.58 268.417 185.58H260.243V193.68H255.185V168.023ZM268.344 181.181C269.199 181.181 269.895 180.912 270.433 180.375C270.971 179.813 271.239 179.08 271.239 178.176V175.207C271.239 174.351 270.995 173.679 270.506 173.191C270.042 172.678 269.419 172.421 268.637 172.421H260.243V181.181H268.344Z"></path>
<path fill="#231F20" d="M284.971 172.421H276.834V168.023H298.166V172.421H290.029V193.68H284.971V172.421Z"></path>
<path fill="#231F20" d="M299.119 194.047C298.215 194.047 297.482 193.778 296.92 193.24C296.382 192.678 296.114 191.945 296.114 191.041C296.114 190.137 296.382 189.416 296.92 188.879C297.482 188.317 298.215 188.036 299.119 188.036C300.023 188.036 300.744 188.317 301.282 188.879C301.844 189.416 302.125 190.137 302.125 191.041C302.125 191.945 301.844 192.678 301.282 193.24C300.744 193.778 300.023 194.047 299.119 194.047Z"></path>
<path fill="#231F20" d="M324.056 193.974C321.368 193.974 319.266 193.228 317.751 191.738C316.236 190.223 315.479 188.121 315.479 185.433H320.464C320.464 186.704 320.781 187.706 321.417 188.439C322.076 189.147 322.98 189.502 324.129 189.502H328.198C329.273 189.502 330.14 189.282 330.8 188.842C331.484 188.378 331.826 187.767 331.826 187.009V185.763C331.826 184.566 330.947 183.82 329.187 183.527L322.443 182.391C320.244 182.024 318.57 181.328 317.421 180.302C316.297 179.251 315.735 177.919 315.735 176.306V174.254C315.735 172.959 316.077 171.822 316.762 170.845C317.47 169.843 318.46 169.073 319.73 168.536C321.026 167.998 322.516 167.729 324.202 167.729H328.344C329.933 167.729 331.338 168.059 332.559 168.719C333.781 169.379 334.722 170.307 335.382 171.505C336.066 172.678 336.408 174.046 336.408 175.61H331.423C331.423 174.584 331.142 173.765 330.58 173.154C330.018 172.519 329.273 172.201 328.344 172.201H324.202C323.176 172.201 322.345 172.421 321.71 172.861C321.099 173.301 320.793 173.887 320.793 174.62V175.61C320.793 176.832 321.637 177.589 323.323 177.882L330.03 179.055C332.254 179.446 333.952 180.143 335.125 181.145C336.298 182.122 336.885 183.393 336.885 184.957V187.376C336.885 188.671 336.518 189.819 335.785 190.821C335.076 191.823 334.074 192.605 332.779 193.167C331.484 193.705 329.981 193.974 328.271 193.974H324.056Z"></path>
<path fill="#231F20" d="M354.796 187.706H345.193L342.92 193.68H337.642L347.685 168.023H349.958C351.546 168.023 352.622 168.756 353.184 170.222L362.31 193.68H357.032L354.796 187.706ZM346.549 183.454H353.44L350.031 174.217H349.995L346.549 183.454Z"></path>
<path fill="#231F20" d="M367.371 172.421H359.233V168.023H380.566V172.421H372.429V193.68H367.371V172.421Z"></path>
<path fill="#231F20" d="M386.85 193.68C385.799 193.68 384.944 193.363 384.284 192.727C383.625 192.092 383.295 191.261 383.295 190.235V168.023H402.868V172.421H388.353V178.359H401.768V182.757H388.353V189.282H402.868V193.68H386.85Z"></path>
<path fill="#231F20" d="M409.866 193.68C408.791 193.68 407.924 193.375 407.264 192.764C406.629 192.129 406.311 191.298 406.311 190.271V168.023H411.369V189.282H425.298V193.68H409.866Z"></path>
<path fill="#231F20" d="M428.226 168.023H433.284V193.68H428.226V168.023Z"></path>
<path fill="#231F20" d="M444.509 172.421H436.371V168.023H457.704V172.421H449.567V193.68H444.509V172.421Z"></path>
<path fill="#231F20" d="M478.69 193.974C476.002 193.974 473.9 193.228 472.385 191.738C470.87 190.223 470.113 188.121 470.113 185.433H475.097C475.097 186.704 475.415 187.706 476.05 188.439C476.71 189.147 477.614 189.502 478.763 189.502H482.831C483.907 189.502 484.774 189.282 485.434 188.842C486.118 188.378 486.46 187.767 486.46 187.009V185.763C486.46 184.566 485.581 183.82 483.821 183.527L477.077 182.391C474.878 182.024 473.204 181.328 472.055 180.302C470.931 179.251 470.369 177.919 470.369 176.306V174.254C470.369 172.959 470.711 171.822 471.395 170.845C472.104 169.843 473.094 169.073 474.364 168.536C475.66 167.998 477.15 167.729 478.836 167.729H482.978C484.566 167.729 485.972 168.059 487.193 168.719C488.415 169.379 489.356 170.307 490.016 171.505C490.7 172.678 491.042 174.046 491.042 175.61H486.057C486.057 174.584 485.776 173.765 485.214 173.154C484.652 172.519 483.907 172.201 482.978 172.201H478.836C477.81 172.201 476.979 172.421 476.344 172.861C475.733 173.301 475.427 173.887 475.427 174.62V175.61C475.427 176.832 476.27 177.589 477.957 177.882L484.664 179.055C486.888 179.446 488.586 180.143 489.759 181.145C490.932 182.122 491.518 183.393 491.518 184.957V187.376C491.518 188.671 491.152 189.819 490.419 190.821C489.71 191.823 488.708 192.605 487.413 193.167C486.118 193.705 484.615 193.974 482.905 193.974H478.69Z"></path>
<path fill="#231F20" d="M498.602 193.68C497.551 193.68 496.696 193.363 496.036 192.727C495.376 192.092 495.046 191.261 495.046 190.235V168.023H514.62V172.421H500.105V178.359H513.52V182.757H500.105V189.282H514.62V193.68H498.602Z"></path>
<path fill="#231F20" d="M524.734 193.974C523.072 193.974 521.606 193.595 520.335 192.837C519.089 192.055 518.111 190.968 517.403 189.575C516.719 188.158 516.376 186.533 516.376 184.7H521.361C521.361 186.142 521.667 187.303 522.278 188.182C522.913 189.062 523.732 189.502 524.734 189.502H527.556C528.558 189.502 529.364 189.05 529.975 188.146C530.61 187.217 530.928 186.007 530.928 184.517V168.023H535.986V184.737C535.986 186.569 535.644 188.182 534.96 189.575C534.276 190.968 533.311 192.055 532.064 192.837C530.818 193.595 529.389 193.974 527.776 193.974H524.734Z"></path>
<path fill="#231F20" d="M554.174 187.706H544.57L542.298 193.68H537.02L547.063 168.023H549.336C550.924 168.023 551.999 168.756 552.561 170.222L561.688 193.68H556.41L554.174 187.706ZM545.927 183.454H552.818L549.409 174.217H549.372L545.927 183.454Z"></path>
<path fill="#231F20" d="M564.095 168.023H569.153V178.616H581.102V168.023H586.16V193.68H581.102V183.014H569.153V193.68H564.095V168.023Z"></path>
<path fill="#231F20" d="M596.995 172.421H588.858V168.023H610.19V172.421H602.053V193.68H596.995V172.421Z"></path>
<path fill="#231F20" d="M616.474 193.68C615.424 193.68 614.568 193.363 613.909 192.727C613.249 192.092 612.919 191.261 612.919 190.235V168.023H632.492V172.421H617.977V178.359H631.393V182.757H617.977V189.282H632.492V193.68H616.474Z"></path>
<path fill="#231F20" d="M635.935 168.023H649.57C651.794 168.023 653.578 168.621 654.922 169.819C656.29 171.016 656.974 172.592 656.974 174.547V177.113C656.974 178.383 656.608 179.495 655.875 180.448C655.166 181.377 654.128 182.085 652.759 182.574V182.647C653.541 183.161 654.128 183.747 654.519 184.407C654.934 185.067 655.337 185.983 655.728 187.156L657.781 193.68H652.539L650.597 187.596C650.279 186.545 649.839 185.763 649.277 185.25C648.715 184.737 648.019 184.48 647.188 184.48H640.993V193.68H635.935V168.023ZM648.617 180.118C649.644 180.118 650.45 179.85 651.037 179.312C651.623 178.75 651.916 178.029 651.916 177.149V174.767C651.916 174.058 651.696 173.496 651.256 173.081C650.817 172.641 650.23 172.421 649.497 172.421H640.993V180.118H648.617Z"></path>
<path fill="#231F20" d="M675.805 187.706H666.202L663.929 193.68H658.651L668.694 168.023H670.967C672.555 168.023 673.63 168.756 674.192 170.222L683.319 193.68H678.041L675.805 187.706ZM667.558 183.454H674.449L671.04 174.217H671.003L667.558 183.454Z"></path>
<path fill="#231F20" d="M261.489 212.74H253.352V208.342H274.685V212.74H266.548V234H261.489V212.74Z"></path>
<path fill="#231F20" d="M280.969 234C279.918 234 279.063 233.682 278.403 233.047C277.743 232.411 277.413 231.58 277.413 230.554V208.342H296.987V212.74H282.472V218.678H295.887V223.077H282.472V229.601H296.987V234H280.969Z"></path>
<path fill="#231F20" d="M300.43 208.342H314.065C316.289 208.342 318.072 208.941 319.416 210.138C320.785 211.335 321.469 212.911 321.469 214.866V217.432C321.469 218.703 321.102 219.815 320.369 220.768C319.661 221.696 318.622 222.405 317.254 222.894V222.967C318.036 223.48 318.622 224.066 319.013 224.726C319.429 225.386 319.832 226.302 320.223 227.475L322.275 234H317.034L315.091 227.915C314.774 226.864 314.334 226.082 313.772 225.569C313.21 225.056 312.513 224.8 311.682 224.8H305.488V234H300.43V208.342ZM313.112 220.438C314.138 220.438 314.945 220.169 315.531 219.631C316.118 219.069 316.411 218.348 316.411 217.469V215.086C316.411 214.378 316.191 213.816 315.751 213.4C315.311 212.96 314.725 212.74 313.992 212.74H305.488V220.438H313.112Z"></path>
<path fill="#231F20" d="M340.299 228.025H330.696L328.424 234H323.145L333.189 208.342H335.461C337.049 208.342 338.125 209.075 338.687 210.541L347.813 234H342.535L340.299 228.025ZM332.052 223.773H338.943L335.534 214.536H335.498L332.052 223.773Z"></path>
<path fill="#231F20" d="M350.22 208.342H354.729L367.044 225.789V208.342H371.993V234H367.484L355.169 216.552V234H350.22V208.342Z"></path>
<path fill="#231F20" d="M385.326 234.293C383.445 234.293 381.783 233.89 380.342 233.083C378.9 232.277 377.776 231.141 376.969 229.674C376.187 228.184 375.796 226.473 375.796 224.543V217.799C375.796 215.868 376.187 214.17 376.969 212.704C377.776 211.213 378.9 210.065 380.342 209.258C381.808 208.452 383.494 208.049 385.4 208.049H389.505C391.338 208.049 392.951 208.415 394.343 209.148C395.736 209.881 396.811 210.92 397.569 212.264C398.351 213.608 398.742 215.16 398.742 216.919H393.757C393.757 215.599 393.366 214.536 392.584 213.73C391.802 212.924 390.776 212.52 389.505 212.52H385.4C384.031 212.52 382.932 213.034 382.101 214.06C381.27 215.062 380.855 216.381 380.855 218.019V224.323C380.855 225.96 381.258 227.292 382.064 228.318C382.895 229.32 383.983 229.821 385.326 229.821H389.652C390.898 229.821 391.924 229.369 392.731 228.465C393.561 227.561 393.977 226.437 393.977 225.093V224.286H386.866V219.888H398.962V225.093C398.962 226.877 398.571 228.465 397.789 229.858C397.007 231.251 395.907 232.338 394.49 233.12C393.073 233.902 391.46 234.293 389.652 234.293H385.326Z"></path>
</svg>
