<svg width="621" height="186" viewBox="0 0 621 186" fill="none" xmlns="http://www.w3.org/2000/svg">
<path d="M89.2902 106.646C97.5409 110.465 105.752 114.283 114.042 118.022C114.915 118.42 114.955 118.977 114.955 119.773C114.955 132.7 114.955 145.668 114.955 158.596C114.955 160.068 114.955 161.579 114.955 163.051C114.955 163.847 114.717 164.324 113.963 164.642C107.934 167.427 101.904 170.211 95.8749 172.996C89.6472 175.86 83.4195 178.763 77.1918 181.627C74.6135 182.821 72.0351 184.014 69.4568 185.207C68.9411 185.446 68.4651 185.446 67.9098 185.207C62.5547 182.741 57.2394 180.275 51.8843 177.809C39.8653 172.28 27.8858 166.711 15.8668 161.182C10.8291 158.874 5.83104 156.528 0.793338 154.22C0.238002 153.982 0 153.663 0 153.027C0 132.541 0 112.056 0 91.57C0 90.2176 -1.18217e-07 90.1778 1.30901 90.7744C15.4304 97.298 29.5519 103.822 43.7129 110.345C44.7046 110.783 45.6566 111.3 46.6483 111.698C47.2433 111.936 47.402 112.334 47.4416 112.931C47.64 117.386 47.4813 121.881 47.521 126.336C47.521 127.649 47.521 128.922 47.521 130.234C47.521 131.626 47.4813 131.666 46.2516 131.109C42.4436 129.359 38.6356 127.569 34.7879 125.779C29.4329 123.313 24.0382 120.847 18.6831 118.341C17.8898 117.983 17.7311 118.142 17.7311 118.977C17.7311 126.455 17.7311 133.934 17.7311 141.452C17.7311 142.207 18.0088 142.565 18.6831 142.884C27.4892 146.941 36.2952 151.038 45.141 155.135C52.757 158.676 60.3731 162.176 67.9494 165.676C68.4651 165.915 68.8618 165.875 69.3774 165.676C76.8745 162.176 84.3715 158.715 91.8289 155.255C93.3363 154.539 94.8436 153.823 96.3906 153.146C96.946 152.908 97.1839 152.55 97.1839 151.913C97.1839 144.952 97.1839 137.951 97.1839 130.99C97.1839 130.234 96.8666 129.836 96.2319 129.518C91.3926 127.291 86.5532 125.023 81.6742 122.756C75.6845 119.972 69.6551 117.227 63.6654 114.442C54.2247 110.067 44.784 105.731 35.3432 101.355C28.0445 97.9743 20.7061 94.5534 13.4074 91.1722C9.20272 89.2231 4.99803 87.2342 0.753671 85.2851C0.317335 85.0066 0.0396669 84.768 0.0396669 84.1315C0.0396669 63.9641 0.0396669 43.7966 0.0396669 23.6291C0.0396669 22.7143 0.277668 22.4756 1.19001 22.4756C6.30704 22.5154 11.4241 22.5154 16.5808 22.4756C17.5328 22.4756 17.8501 22.7938 17.8104 23.7087C17.8104 36.4774 17.8104 49.2064 17.8104 61.9752C17.8104 65.4756 17.8501 68.9363 17.8104 72.4368C17.8104 73.2721 18.0484 73.7097 18.8418 74.1075C30.3452 79.3979 41.8089 84.6884 53.3123 89.9789C55.6924 91.0927 85.4822 104.896 89.2902 106.646Z" fill="#231F20"/>
<path d="M47.3622 80.7894C39.6272 77.2094 31.8921 73.5498 24.1174 70.0096C22.8481 69.4527 22.3721 68.8162 22.3721 67.3444C22.4514 52.7857 22.4514 38.2269 22.3721 23.6682C22.3721 22.7135 22.6101 22.4351 23.6017 22.4351C33.6375 22.4351 43.6732 22.4351 53.6693 22.4351C54.9783 22.4351 54.9386 22.4351 54.9783 23.7477C55.2163 28.7995 55.0576 33.8116 55.0973 38.8634C55.0973 40.1363 55.0576 40.2158 53.7486 40.2158C49.6232 40.2158 45.4582 40.2158 41.3329 40.2158C40.4205 40.2158 40.1428 40.4545 40.1428 41.4092C40.1825 46.5405 40.1825 51.6719 40.1428 56.8033C40.1428 57.6386 40.4602 58.0364 41.1742 58.3546C50.0992 62.4517 58.9846 66.5489 67.9097 70.646C79.6511 76.0956 91.3925 81.5452 103.134 86.955C114.161 92.0466 125.189 97.1382 136.216 102.19C136.89 102.508 137.128 102.906 137.128 103.622C137.128 107.48 137.128 111.379 137.128 115.237C137.128 127.807 137.128 140.337 137.128 152.907C137.128 153.583 136.97 153.901 136.335 154.18C131.059 156.567 125.823 159.033 120.587 161.459C119.477 161.976 119.397 161.937 119.397 160.664C119.397 145.707 119.397 130.711 119.397 115.754C119.397 114.481 119.08 113.845 117.85 113.248C104.602 107.202 91.4322 101.076 78.2231 94.9504C77.1917 94.4731 52.6379 83.1363 47.2829 80.6701L47.3622 80.7894Z" fill="#231F20"/>
<path d="M68.7428 0C91.2339 0 113.725 0 136.177 0C137.049 0 137.248 0.238668 137.248 1.11378C137.208 6.20537 137.248 11.2572 137.248 16.3488C137.248 17.8206 137.248 17.8206 135.74 17.8206C116.978 17.8206 98.2153 17.8206 79.4925 17.8206C78.2232 17.8206 77.5885 18.457 77.5885 19.7299C77.5885 35.7207 77.5885 51.7114 77.5885 67.6624C77.5885 67.9409 77.5885 68.2193 77.5885 68.5375C77.5885 69.9298 77.5092 69.9695 76.2002 69.3729C71.0435 66.9862 65.9264 64.5995 60.7697 62.2526C60.0954 61.9344 59.7781 61.5764 59.8574 60.8206C59.8971 59.9455 59.8574 59.0306 59.8574 58.1555C59.8574 52.0297 59.6591 45.9038 59.7781 39.8178C59.8971 32.8964 59.7781 25.975 59.8574 19.0935C59.8574 17.8603 59.8574 17.8206 58.5881 17.8206C39.8653 17.8206 21.1425 17.8206 2.41969 17.8206C2.10235 17.8206 1.78501 17.8206 1.46768 17.8206C0.119004 17.8206 0.0793372 17.8206 0.0793372 16.4681C0.0793372 11.3765 0.0793372 6.24515 0.0793372 1.15356C0.0396703 0.19889 0.317339 0 1.19001 0C23.7208 0 46.212 0 68.7428 0Z" fill="#0064C9"/>
<path d="M137.208 59.9449C137.208 72.0374 137.208 84.1299 137.208 96.1827C137.208 97.4954 137.208 97.5351 136.018 96.9782C129.711 94.0744 123.444 91.1707 117.176 88.2271C110.83 85.2835 104.483 82.3399 98.1361 79.4361C97.3428 79.0781 97.0651 78.6406 97.1048 77.7655C97.1048 72.0374 97.1048 66.3492 97.1048 60.6211C97.1048 59.388 97.1841 59.3482 98.3344 59.8654C105.078 63.0078 111.821 66.1105 118.565 69.2132C119.437 69.611 119.517 69.5712 119.517 68.5767C119.517 59.5074 119.517 50.438 119.517 41.3686C119.517 40.4139 119.239 40.1355 118.287 40.1355C106.942 40.1355 95.5974 40.1355 84.213 40.1355C81.9123 40.1355 82.2693 40.1752 82.2297 38.1863C82.19 35.4814 82.2297 32.8163 82.1503 30.1114C82.071 27.7645 82.2297 25.4176 82.2693 23.0707C82.2693 22.474 82.547 22.2354 83.142 22.2354C100.754 22.474 118.366 22.2354 135.978 22.3547C136.825 22.3547 137.248 22.7922 137.248 23.6674C137.248 35.7201 137.248 47.7728 137.248 59.8256L137.208 59.9449Z" fill="#231F20"/>
<path d="M77.5884 141.291C77.5884 145.945 77.5884 150.599 77.5884 155.253C77.5884 156.248 77.3108 156.805 76.3588 157.202C73.9787 158.237 71.6384 159.351 69.298 160.464C68.9014 160.663 68.5444 160.703 68.1477 160.504C65.6487 159.311 63.11 158.117 60.5713 156.964C59.897 156.646 59.659 156.208 59.6987 155.492C59.8573 147.855 59.8573 140.217 59.8177 132.58C59.8177 129.636 59.6987 126.693 59.7383 123.749C59.7383 122.039 59.8573 120.328 59.8177 118.618C59.8177 117.822 60.0953 117.862 60.6507 118.14C62.9117 119.214 65.1727 120.249 67.4337 121.283C70.4087 122.675 73.3837 124.107 76.3984 125.42C77.3108 125.818 77.5884 126.375 77.5884 127.289C77.5884 131.943 77.5884 136.597 77.5884 141.251V141.291Z" fill="#0064C9"/>
<path d="M195.392 103.888C187.434 103.888 181.213 101.681 176.728 97.2685C172.243 92.7833 170 86.5619 170 78.6044H184.758C184.758 82.3661 185.698 85.3321 187.579 87.5024C189.532 89.6003 192.209 90.6492 195.609 90.6492H207.654C210.837 90.6492 213.405 89.9982 215.358 88.696C217.384 87.3215 218.397 85.513 218.397 83.2704V79.581C218.397 76.0362 215.792 73.8298 210.584 72.9617L190.617 69.5978C184.107 68.5127 179.151 66.451 175.751 63.4126C172.423 60.3019 170.76 56.3593 170.76 51.5848V45.5081C170.76 41.674 171.772 38.3101 173.798 35.4164C175.896 32.4504 178.826 30.1717 182.587 28.5801C186.422 26.9886 190.834 26.1929 195.826 26.1929H208.088C212.79 26.1929 216.95 27.1695 220.567 29.1227C224.184 31.0759 226.969 33.8249 228.922 37.3696C230.948 40.842 231.961 44.8932 231.961 49.523H217.203C217.203 46.4847 216.371 44.0612 214.707 42.2527C213.043 40.3718 210.837 39.4314 208.088 39.4314H195.826C192.788 39.4314 190.328 40.0825 188.447 41.3846C186.639 42.6868 185.734 44.423 185.734 46.5932V49.523C185.734 53.1401 188.23 55.3827 193.222 56.2508L213.079 59.7232C219.663 60.8807 224.69 62.9424 228.163 65.9084C231.635 68.8021 233.371 72.5638 233.371 77.1937V84.3555C233.371 88.1896 232.286 91.5897 230.116 94.5557C228.018 97.5217 225.052 99.8366 221.218 101.5C217.384 103.092 212.935 103.888 207.871 103.888H195.392Z" fill="#0064C9"/>
<path d="M297.249 85.3321H268.819L262.091 103.02H246.466L276.198 27.061H282.926C287.628 27.061 290.811 29.2312 292.475 33.5717L319.495 103.02H303.869L297.249 85.3321ZM272.834 72.7447H293.235L283.143 45.3996H283.034L272.834 72.7447Z" fill="#0064C9"/>
<path d="M345.326 40.0825H321.237V27.061H384.391V40.0825H360.301V103.02H345.326V40.0825Z" fill="#0064C9"/>
<path d="M424.412 103.888C416.455 103.888 410.234 101.681 405.748 97.2685C401.263 92.7833 399.021 86.5619 399.021 78.6044H413.778C413.778 82.3661 414.719 85.3321 416.6 87.5024C418.553 89.6003 421.229 90.6492 424.63 90.6492H436.674C439.857 90.6492 442.426 89.9982 444.379 88.696C446.404 87.3215 447.417 85.513 447.417 83.2704V79.581C447.417 76.0362 444.813 73.8298 439.604 72.9617L419.638 69.5978C413.127 68.5127 408.172 66.451 404.772 63.4126C401.444 60.3019 399.78 56.3593 399.78 51.5848V45.5081C399.78 41.674 400.793 38.3101 402.819 35.4164C404.916 32.4504 407.846 30.1717 411.608 28.5801C415.442 26.9886 419.855 26.1929 424.847 26.1929H437.108C441.811 26.1929 445.97 27.1695 449.587 29.1227C453.204 31.0759 455.99 33.8249 457.943 37.3696C459.968 40.842 460.981 44.8932 460.981 49.523H446.224C446.224 46.4847 445.392 44.0612 443.728 42.2527C442.064 40.3718 439.857 39.4314 437.108 39.4314H424.847C421.808 39.4314 419.349 40.0825 417.468 41.3846C415.659 42.6868 414.755 44.423 414.755 46.5932V49.523C414.755 53.1401 417.251 55.3827 422.242 56.2508L442.1 59.7232C448.683 60.8807 453.711 62.9424 457.183 65.9084C460.656 68.8021 462.392 72.5638 462.392 77.1937V84.3555C462.392 88.1896 461.307 91.5897 459.136 94.5557C457.039 97.5217 454.073 99.8366 450.238 101.5C446.404 103.092 441.955 103.888 436.891 103.888H424.412Z" fill="#0064C9"/>
<path d="M494.213 103.02C491.102 103.02 488.57 102.079 486.617 100.198C484.664 98.3175 483.687 95.8578 483.687 92.8195V27.061H541.633V40.0825H498.662V57.6615H538.378V70.683H498.662V89.9982H541.633V103.02H494.213Z" fill="#0064C9"/>
<path d="M581.341 40.0825H557.251V27.061H620.405V40.0825H596.316V103.02H581.341V40.0825Z" fill="#0064C9"/>
<path d="M170.405 122.744H180.888C182.044 122.744 183.066 122.975 183.957 123.438C184.847 123.881 185.538 124.527 186.03 125.376C186.523 126.205 186.769 127.16 186.769 128.239V130.93C186.769 132.048 186.513 133.041 186.002 133.909C185.491 134.757 184.771 135.423 183.843 135.905C182.934 136.368 181.873 136.599 180.661 136.599H174.326V142.991H170.405V122.744ZM180.604 133.128C181.267 133.128 181.807 132.916 182.224 132.492C182.64 132.048 182.849 131.469 182.849 130.756V128.413C182.849 127.738 182.659 127.208 182.28 126.822C181.921 126.417 181.438 126.215 180.832 126.215H174.326V133.128H180.604Z" fill="#231F20"/>
<path d="M193.491 126.215H187.185V122.744H203.719V126.215H197.412V142.991H193.491V126.215Z" fill="#231F20"/>
<path d="M204.457 143.281C203.756 143.281 203.188 143.069 202.753 142.644C202.336 142.201 202.128 141.622 202.128 140.909C202.128 140.195 202.336 139.626 202.753 139.202C203.188 138.759 203.756 138.537 204.457 138.537C205.158 138.537 205.717 138.759 206.133 139.202C206.569 139.626 206.787 140.195 206.787 140.909C206.787 141.622 206.569 142.201 206.133 142.644C205.717 143.069 205.158 143.281 204.457 143.281Z" fill="#231F20"/>
<path d="M223.784 143.223C221.701 143.223 220.072 142.635 218.898 141.458C217.724 140.263 217.137 138.604 217.137 136.483H221C221 137.486 221.247 138.277 221.739 138.855C222.25 139.414 222.951 139.694 223.841 139.694H226.995C227.828 139.694 228.5 139.52 229.012 139.173C229.542 138.807 229.807 138.325 229.807 137.727V136.744C229.807 135.799 229.125 135.211 227.762 134.979L222.534 134.082C220.83 133.793 219.533 133.244 218.642 132.434C217.771 131.604 217.336 130.553 217.336 129.281V127.661C217.336 126.639 217.601 125.742 218.131 124.971C218.68 124.18 219.447 123.573 220.432 123.149C221.436 122.724 222.591 122.512 223.898 122.512H227.108C228.339 122.512 229.428 122.773 230.375 123.293C231.322 123.814 232.052 124.547 232.563 125.492C233.093 126.417 233.358 127.497 233.358 128.731H229.495C229.495 127.921 229.277 127.275 228.841 126.793C228.406 126.292 227.828 126.041 227.108 126.041H223.898C223.103 126.041 222.459 126.215 221.966 126.562C221.493 126.909 221.256 127.372 221.256 127.95V128.731C221.256 129.695 221.909 130.293 223.216 130.525L228.415 131.45C230.139 131.759 231.455 132.308 232.364 133.099C233.273 133.87 233.728 134.873 233.728 136.107V138.016C233.728 139.038 233.444 139.945 232.875 140.735C232.326 141.526 231.55 142.143 230.546 142.587C229.542 143.011 228.377 143.223 227.052 143.223H223.784Z" fill="#231F20"/>
<path d="M247.61 138.277H240.167L238.406 142.991H234.315L242.099 122.744H243.86C245.091 122.744 245.925 123.322 246.36 124.479L253.434 142.991H249.343L247.61 138.277ZM241.218 134.921H246.559L243.917 127.632H243.889L241.218 134.921Z" fill="#231F20"/>
<path d="M257.356 126.215H251.049V122.744H267.584V126.215H261.277V142.991H257.356V126.215Z" fill="#231F20"/>
<path d="M272.454 142.991C271.64 142.991 270.977 142.741 270.465 142.239C269.954 141.738 269.698 141.082 269.698 140.273V122.744H284.869V126.215H273.619V130.901H284.017V134.372H273.619V139.52H284.869V142.991H272.454Z" fill="#231F20"/>
<path d="M290.293 142.991C289.46 142.991 288.787 142.75 288.276 142.268C287.784 141.767 287.537 141.111 287.537 140.301V122.744H291.458V139.52H302.253V142.991H290.293Z" fill="#231F20"/>
<path d="M304.523 122.744H308.443V142.991H304.523V122.744Z" fill="#231F20"/>
<path d="M317.143 126.215H310.836V122.744H327.37V126.215H321.063V142.991H317.143V126.215Z" fill="#231F20"/>
<path d="M343.635 143.223C341.552 143.223 339.923 142.635 338.749 141.458C337.575 140.263 336.988 138.604 336.988 136.483H340.851C340.851 137.486 341.097 138.277 341.59 138.855C342.101 139.414 342.802 139.694 343.692 139.694H346.845C347.679 139.694 348.351 139.52 348.863 139.173C349.393 138.807 349.658 138.325 349.658 137.727V136.744C349.658 135.799 348.976 135.211 347.613 134.979L342.385 134.082C340.681 133.793 339.383 133.244 338.493 132.434C337.622 131.604 337.186 130.553 337.186 129.281V127.661C337.186 126.639 337.452 125.742 337.982 124.971C338.531 124.18 339.298 123.573 340.283 123.149C341.287 122.724 342.442 122.512 343.749 122.512H346.959C348.19 122.512 349.279 122.773 350.226 123.293C351.173 123.814 351.902 124.547 352.414 125.492C352.944 126.417 353.209 127.497 353.209 128.731H349.345C349.345 127.921 349.128 127.275 348.692 126.793C348.256 126.292 347.679 126.041 346.959 126.041H343.749C342.953 126.041 342.31 126.215 341.817 126.562C341.344 126.909 341.107 127.372 341.107 127.95V128.731C341.107 129.695 341.76 130.293 343.067 130.525L348.266 131.45C349.989 131.759 351.306 132.308 352.215 133.099C353.124 133.87 353.578 134.873 353.578 136.107V138.016C353.578 139.038 353.294 139.945 352.726 140.735C352.177 141.526 351.4 142.143 350.397 142.587C349.393 143.011 348.228 143.223 346.902 143.223H343.635Z" fill="#231F20"/>
<path d="M359.068 142.991C358.254 142.991 357.591 142.741 357.08 142.239C356.568 141.738 356.313 141.082 356.313 140.273V122.744H371.483V126.215H360.233V130.901H370.631V134.372H360.233V139.52H371.483V142.991H359.068Z" fill="#231F20"/>
<path d="M379.322 143.223C378.034 143.223 376.898 142.924 375.913 142.326C374.947 141.709 374.19 140.851 373.64 139.752C373.11 138.633 372.845 137.351 372.845 135.905H376.709C376.709 137.042 376.945 137.958 377.419 138.653C377.911 139.347 378.546 139.694 379.322 139.694H381.51C382.286 139.694 382.911 139.337 383.385 138.624C383.877 137.891 384.123 136.936 384.123 135.76V122.744H388.044V135.934C388.044 137.38 387.779 138.653 387.248 139.752C386.718 140.851 385.97 141.709 385.004 142.326C384.038 142.924 382.93 143.223 381.68 143.223H379.322Z" fill="#231F20"/>
<path d="M402.14 138.277H394.697L392.936 142.991H388.845L396.629 122.744H398.39C399.621 122.744 400.455 123.322 400.89 124.479L407.964 142.991H403.873L402.14 138.277ZM395.748 134.921H401.089L398.447 127.632H398.419L395.748 134.921Z" fill="#231F20"/>
<path d="M409.83 122.744H413.75V131.103H423.011V122.744H426.932V142.991H423.011V134.574H413.75V142.991H409.83V122.744Z" fill="#231F20"/>
<path d="M435.329 126.215H429.022V122.744H445.556V126.215H439.25V142.991H435.329V126.215Z" fill="#231F20"/>
<path d="M450.427 142.991C449.613 142.991 448.95 142.741 448.438 142.239C447.927 141.738 447.671 141.082 447.671 140.273V122.744H462.842V126.215H451.592V130.901H461.99V134.372H451.592V139.52H462.842V142.991H450.427Z" fill="#231F20"/>
<path d="M465.51 122.744H476.078C477.802 122.744 479.184 123.216 480.226 124.161C481.287 125.106 481.817 126.35 481.817 127.892V129.917C481.817 130.92 481.533 131.797 480.965 132.549C480.416 133.282 479.611 133.841 478.55 134.227V134.285C479.156 134.69 479.611 135.153 479.914 135.673C480.236 136.194 480.548 136.917 480.851 137.843L482.442 142.991H478.38L476.874 138.19C476.628 137.361 476.287 136.744 475.851 136.339C475.415 135.934 474.876 135.731 474.232 135.731H469.431V142.991H465.51V122.744ZM475.34 132.289C476.135 132.289 476.76 132.077 477.215 131.653C477.669 131.209 477.897 130.64 477.897 129.946V128.066C477.897 127.507 477.726 127.063 477.385 126.735C477.044 126.388 476.59 126.215 476.022 126.215H469.431V132.289H475.34Z" fill="#231F20"/>
<path d="M496.412 138.277H488.969L487.207 142.991H483.116L490.9 122.744H492.662C493.893 122.744 494.726 123.322 495.162 124.479L502.236 142.991H498.145L496.412 138.277ZM490.02 134.921H495.361L492.719 127.632H492.69L490.02 134.921Z" fill="#231F20"/>
<path d="M513.856 125.983H507.549V122.512H524.083V125.983H517.776V142.76H513.856V125.983Z" fill="#231F20"/>
<path d="M528.954 142.76C528.139 142.76 527.476 142.509 526.965 142.008C526.454 141.507 526.198 140.851 526.198 140.041V122.512H541.368V125.983H530.118V130.669H540.516V134.14H530.118V139.289H541.368V142.76H528.954Z" fill="#231F20"/>
<path d="M544.037 122.512H554.605C556.329 122.512 557.711 122.985 558.753 123.93C559.813 124.874 560.344 126.118 560.344 127.661V129.686C560.344 130.688 560.06 131.566 559.491 132.318C558.942 133.051 558.137 133.61 557.077 133.996V134.053C557.683 134.458 558.137 134.921 558.44 135.442C558.762 135.963 559.075 136.686 559.378 137.611L560.969 142.76H556.906L555.401 137.958C555.154 137.129 554.813 136.512 554.378 136.107C553.942 135.702 553.402 135.5 552.759 135.5H547.957V142.76H544.037V122.512ZM553.867 132.058C554.662 132.058 555.287 131.845 555.741 131.421C556.196 130.978 556.423 130.409 556.423 129.715V127.834C556.423 127.275 556.253 126.832 555.912 126.504C555.571 126.157 555.116 125.983 554.548 125.983H547.957V132.058H553.867Z" fill="#231F20"/>
<path d="M574.938 138.045H567.495L565.734 142.76H561.643L569.427 122.512H571.188C572.42 122.512 573.253 123.091 573.688 124.248L580.762 142.76H576.671L574.938 138.045ZM568.546 134.69H573.887L571.245 127.401H571.217L568.546 134.69Z" fill="#231F20"/>
<path d="M582.628 122.512H586.122L595.668 136.281V122.512H599.503V142.76H596.008L586.463 128.991V142.76H582.628V122.512Z" fill="#231F20"/>
<path d="M609.837 142.991C608.379 142.991 607.091 142.673 605.974 142.037C604.856 141.401 603.985 140.504 603.36 139.347C602.754 138.171 602.451 136.821 602.451 135.297V129.975C602.451 128.452 602.754 127.111 603.36 125.954C603.985 124.778 604.856 123.872 605.974 123.235C607.11 122.599 608.417 122.281 609.894 122.281H613.076C614.496 122.281 615.746 122.57 616.826 123.149C617.905 123.727 618.739 124.547 619.326 125.607C619.932 126.668 620.235 127.892 620.235 129.281H616.371C616.371 128.239 616.068 127.401 615.462 126.764C614.856 126.128 614.061 125.81 613.076 125.81H609.894C608.833 125.81 607.981 126.215 607.337 127.025C606.693 127.815 606.371 128.856 606.371 130.149V135.124C606.371 136.416 606.684 137.467 607.309 138.277C607.953 139.067 608.796 139.463 609.837 139.463H613.19C614.155 139.463 614.951 139.106 615.576 138.392C616.22 137.679 616.542 136.792 616.542 135.731V135.095H611.03V131.624H620.405V135.731C620.405 137.139 620.102 138.392 619.496 139.492C618.89 140.591 618.038 141.449 616.94 142.066C615.841 142.683 614.591 142.991 613.19 142.991H609.837Z" fill="#231F20"/>
</svg>
